<?xml version="1.0" encoding="UTF-8" standalone="no"?>
<!DOCTYPE svg PUBLIC "-//W3C//DTD SVG 1.1//EN" "http://www.w3.org/Graphics/SVG/1.1/DTD/svg11.dtd">
<!-- Generated by graphviz version 2.40.1 (20161225.0304)
 -->
<!-- Title: G Pages: 1 -->
<svg width="579pt" height="148pt" viewBox="0.00 0.00 579.15 148.00" xmlns="http://www.w3.org/2000/svg" xmlns:xlink="http://www.w3.org/1999/xlink">
<g id="graph0" class="graph" transform="scale(1 1) rotate(0) translate(4 144)">
<title>G</title>
<polygon fill="#ffffff" stroke="transparent" points="-4,4 -4,-144 575.1474,-144 575.1474,4 -4,4"/>
<g id="clust1" class="cluster">
<title>cluster_birdclef</title>
<polygon fill="none" stroke="#000000" points="8,-8 8,-85 118.1522,-85 118.1522,-8 8,-8"/>
<text text-anchor="middle" x="63.0761" y="-68.4" font-family="Times,serif" font-size="14.00" fill="#000000">birdclef-2022</text>
</g>
<g id="clust2" class="cluster">
<title>cluster_motif</title>
<polygon fill="none" stroke="#000000" points="138.1522,-38 138.1522,-115 242.0744,-115 242.0744,-38 138.1522,-38"/>
<text text-anchor="middle" x="190.1133" y="-98.4" font-family="Times,serif" font-size="14.00" fill="#000000">motif mining</text>
</g>
<g id="clust3" class="cluster">
<title>cluster_embedding</title>
<polygon fill="none" stroke="#000000" points="254.0744,-14 254.0744,-132 563.1474,-132 563.1474,-14 254.0744,-14"/>
<text text-anchor="middle" x="408.6109" y="-115.4" font-family="Times,serif" font-size="14.00" fill="#000000">embedding</text>
</g>
<g id="clust4" class="cluster">
<title>cluster_dataloader</title>
<polygon fill="none" stroke="#000000" points="262.0744,-22 262.0744,-99 335.9566,-99 335.9566,-22 262.0744,-22"/>
<text text-anchor="middle" x="299.0155" y="-82.4" font-family="Times,serif" font-size="14.00" fill="#000000">dataloader</text>
</g>
<g id="clust5" class="cluster">
<title>cluster_model</title>
<polygon fill="none" stroke="#000000" points="363.9566,-22 363.9566,-99 555.1474,-99 555.1474,-22 363.9566,-22"/>
<text text-anchor="middle" x="459.552" y="-82.4" font-family="Times,serif" font-size="14.00" fill="#000000">model</text>
</g>
<!-- train -->
<g id="node1" class="node">
<title>train</title>
<polygon fill="none" stroke="#000000" points="110.2284,-52 15.9238,-52 15.9238,-16 110.2284,-16 110.2284,-52"/>
<text text-anchor="middle" x="63.0761" y="-29.8" font-family="Times,serif" font-size="14.00" fill="#000000">training audio</text>
</g>
<!-- pi -->
<g id="node2" class="node">
<title>pi</title>
<polygon fill="none" stroke="#000000" points="234.0355,-82 146.1911,-82 146.1911,-46 234.0355,-46 234.0355,-82"/>
<text text-anchor="middle" x="190.1133" y="-59.8" font-family="Times,serif" font-size="14.00" fill="#000000">profile index</text>
</g>
<!-- train&#45;&gt;pi -->
<g id="edge3" class="edge">
<title>train-&gt;pi</title>
<path fill="none" stroke="#000000" d="M110.3801,-45.1709C118.7968,-47.1585 127.6207,-49.2423 136.2048,-51.2694"/>
<polygon fill="#000000" stroke="#000000" points="135.5962,-54.7219 146.133,-53.614 137.2051,-47.9093 135.5962,-54.7219"/>
</g>
<!-- triplets -->
<g id="node3" class="node">
<title>triplets</title>
<polygon fill="none" stroke="#000000" points="325.8978,-66 271.1332,-66 271.1332,-30 325.8978,-30 325.8978,-66"/>
<text text-anchor="middle" x="298.5155" y="-43.8" font-family="Times,serif" font-size="14.00" fill="#000000">triplets</text>
</g>
<!-- train&#45;&gt;triplets -->
<g id="edge5" class="edge">
<title>train-&gt;triplets</title>
<path fill="none" stroke="#000000" d="M110.3752,-30.8838C146.5713,-29.2516 197.6551,-28.5732 242.0744,-34 248.1733,-34.7451 254.5622,-35.9272 260.7586,-37.2963"/>
<polygon fill="#000000" stroke="#000000" points="260.3792,-40.8045 270.9197,-39.733 262.0116,-33.9975 260.3792,-40.8045"/>
</g>
<!-- pi&#45;&gt;triplets -->
<g id="edge4" class="edge">
<title>pi-&gt;triplets</title>
<path fill="none" stroke="#000000" d="M234.2046,-57.4922C243.0393,-56.1882 252.2454,-54.8294 260.8388,-53.561"/>
<polygon fill="#000000" stroke="#000000" points="261.569,-56.9912 270.9508,-52.0685 260.5469,-50.0663 261.569,-56.9912"/>
</g>
<!-- mels -->
<g id="node4" class="node">
<title>mels</title>
<polygon fill="none" stroke="#000000" points="457.243,-66 371.861,-66 371.861,-30 457.243,-30 457.243,-66"/>
<text text-anchor="middle" x="414.552" y="-43.8" font-family="Times,serif" font-size="14.00" fill="#000000">spectrogram</text>
</g>
<!-- triplets&#45;&gt;mels -->
<g id="edge1" class="edge">
<title>triplets-&gt;mels</title>
<path fill="none" stroke="#000000" d="M326.0145,-48C336.6956,-48 349.3059,-48 361.6095,-48"/>
<polygon fill="#000000" stroke="#000000" points="361.8232,-51.5001 371.8232,-48 361.8232,-44.5001 361.8232,-51.5001"/>
</g>
<!-- tilenet -->
<g id="node5" class="node">
<title>tilenet</title>
<polygon fill="none" stroke="#000000" points="547.1474,-66 493.1474,-66 493.1474,-30 547.1474,-30 547.1474,-66"/>
<text text-anchor="middle" x="520.1474" y="-43.8" font-family="Times,serif" font-size="14.00" fill="#000000">tilenet</text>
</g>
<!-- mels&#45;&gt;tilenet -->
<g id="edge2" class="edge">
<title>mels-&gt;tilenet</title>
<path fill="none" stroke="#000000" d="M457.1973,-48C465.7296,-48 474.6294,-48 482.9596,-48"/>
<polygon fill="#000000" stroke="#000000" points="483.1361,-51.5001 493.136,-48 483.136,-44.5001 483.1361,-51.5001"/>
</g>
</g>
</svg>
